<svg width="512" height="490" viewBox="0 0 512 490" fill="none" xmlns="http://www.w3.org/2000/svg">
<path style="fill:#6fa16f;" d="M465.498 489.555H382.615L388.397 419.682H347.678L341.896 489.555H170.104L164.322 419.682H123.602L129.385 489.555H46.502L0 186.692L116.375 0.444946H395.625L512 186.692L465.498 489.555ZM372.254 93.6899H297.562L302.622 128.626H209.378L214.438 93.6899H139.746L93.003 186.693L116.375 372.941H395.625L418.997 186.693L372.254 93.6899V93.6899ZM196.367 271.504C196.367 238.242 186.699 217.34 179.007 233.971C171.314 250.602 171.314 292.406 179.007 309.037C186.7 325.668 196.367 304.767 196.367 271.504V271.504ZM343.1 267.889C343.1 234.627 333.432 213.725 325.74 230.356C318.048 246.987 318.047 288.791 325.74 305.422C333.433 322.053 343.1 301.152 343.1 267.889Z" fill="#444444"/>
</svg>
