<svg width="209" height="44" viewBox="0 0 209 44" fill="none" xmlns="http://www.w3.org/2000/svg">
<g filter="url(#filter0_di_18_476)">
<path d="M6.12969 12.2672C5.87266 12.3273 6.03672 12.3164 5.82344 12.3438C4.91016 12.5406 5.58828 12.7156 6.12969 12.2672ZM22.1914 12.6336C22.257 12.5898 22.4867 12.3656 21.7703 12.1469C21.8141 12.3711 21.6227 12.3492 21.6227 12.475C22.1531 12.9563 22.3719 13.793 23.05 13.968C23.1813 13.3664 22.4484 13.0711 22.1914 12.6336ZM5.64297 12.0922C5.725 12.5789 6.09141 11.5781 6.09687 11.2227C5.95469 11.3047 5.8125 11.3867 5.66484 11.4523C6.00938 11.6273 5.70859 11.8133 5.33672 12.0922C4.58203 13.0328 6.04219 11.3594 5.64297 12.0922ZM15 6C7.26719 6 1 12.2672 1 20C1 27.7273 7.26719 34 15 34C22.7328 34 29 27.7273 29 20C29 12.2672 22.7328 6 15 6ZM15.3719 10.6922L15.4375 10.7141C15.175 11.0531 16.8047 12.043 15.6344 12.125C14.5406 12.4367 16.0938 11.8406 15.2461 11.9445C15.6945 11.3211 14.8906 11.3102 15.3719 10.6922ZM8.73281 11.5891C8.33906 11.2609 7.10313 12.0375 7.53516 11.8516C8.60703 11.4305 7.60625 11.8953 7.85781 12.3984C7.62813 12.8742 7.78125 11.9281 7.2125 12.4914C6.80234 12.5844 5.79609 13.5141 5.92188 13.2297C5.88906 13.6727 4.72422 14.1977 4.56562 14.9359C4.18281 15.9586 4.47266 14.8977 4.40156 14.4984C3.85469 13.8039 2.85938 15.6742 3.15469 16.4125C3.65234 15.5375 3.61406 16.3195 3.25312 16.7078C3.61953 17.3805 2.91953 18.2555 3.61406 18.7531C3.92031 18.8242 4.53281 17.725 4.26484 18.868C4.45078 17.8781 4.77891 19.1031 5.30938 18.8297C5.34219 19.3492 5.66484 19.1086 5.73594 19.7375C6.62187 19.6719 7.43125 21.1703 6.37578 21.4547C6.53438 21.4109 6.84609 21.6898 7.20703 21.4766C7.81953 21.9633 9.43281 22.0234 9.47656 23.2266C8.36641 23.757 9.20312 25.2117 8.24062 25.7312C7.13594 25.5672 7.86328 27.093 7.39844 26.918C7.58437 28.0172 6.28281 26.7758 6.78594 27.3828C7.71016 27.9516 6.38125 27.8367 6.79688 28.2523C6.33203 28.1539 7.08672 29.1164 7.2125 29.4719C7.87969 30.5547 6.63828 29.2313 6.27187 28.8703C5.92188 28.1703 5.09609 26.8305 4.86641 25.7312C4.73516 24.1344 3.49922 23.0625 3.21484 21.5039C2.93047 20.6344 3.99688 19.2398 3.42266 18.7531C2.925 18.3648 3.12734 17.0359 2.83203 16.3359C3.57031 13.1367 5.91641 10.4406 8.73281 8.84375C8.44297 9.05703 10.3898 8.29141 10.1656 8.47734C10.1055 8.61406 11.3031 7.95781 12.025 7.85938C11.9484 7.87031 10.1492 8.51562 10.6469 8.42813C9.87578 8.80547 10.5703 8.59219 10.9531 8.40078C10.1875 8.96406 9.59688 8.80547 8.72734 9.30313C7.85234 9.53281 8.03281 10.4406 7.40937 10.8945C7.77578 10.9602 8.69453 9.94844 9.23047 9.59297C10.4609 8.99687 8.60703 10.6758 9.77734 9.95391C9.38359 10.3203 9.46562 10.9055 9.225 11.0695C9.10469 11.0367 9.70078 11.3539 8.73281 11.5891ZM10.6469 9.07344C10.5211 9.24297 10.3461 9.60938 10.2422 9.38516C10.1 9.45625 10.0453 9.7625 9.77734 9.51641C9.93594 9.40156 10.1 9.12812 9.78828 9.29766C9.93047 9.14453 11.1992 8.7125 11.1281 8.54844C11.3523 8.40625 11.3305 8.33516 11.0734 8.42266C10.9422 8.37891 11.3852 8.00703 11.9758 7.95781C12.0578 7.95781 12.0906 8.0125 11.943 7.99609C11.0516 8.26953 11.4344 8.19297 12.0359 7.99609C11.8063 8.12734 11.6477 8.16563 11.6094 8.22578C12.2109 8.00703 11.5766 8.38437 11.7133 8.35703C11.5437 8.44453 11.7406 8.47187 11.4125 8.59766C11.4727 8.54844 10.8766 8.95312 11.232 8.83281C10.8875 9.16094 10.7344 9.16641 10.6469 9.07344ZM11.1719 9.85547C11.1828 9.33047 11.9375 8.99688 11.8445 8.96953C12.7742 8.53203 11.5219 8.98594 12.2547 8.59219C12.5281 8.56484 13.1078 7.68984 13.9117 7.63516C14.7977 7.36719 14.3875 7.65156 15.0437 7.4L14.9125 7.50937C14.7977 7.52578 14.9398 7.72813 14.5242 8.03437C14.4805 8.51016 13.7313 8.29141 14.1031 8.8C13.8625 8.45547 13.5016 8.78906 13.9555 8.82187C13.4688 9.19375 12.3367 9.25938 11.7953 9.87734C11.4453 10.3805 11.1227 10.2219 11.1719 9.85547ZM15.0602 11.6055C14.6883 12.5023 14.3273 11.4742 14.9836 11.3102C15.1477 11.3977 15.2133 11.425 15.0602 11.6055ZM13.6602 9.81172C13.5508 9.40703 13.6383 9.62031 14.2891 9.42891C14.7375 9.75156 13.8898 9.96484 13.6602 9.81172ZM23.843 25.8625C23.3289 24.9766 24.4664 24.1562 24.8492 23.4125C24.8 24.282 24.6906 25.1406 23.843 25.8625ZM25.7789 15.7398C25.2211 15.7836 24.718 15.9148 24.2148 15.5977C23.0555 14.3289 24.4281 17.0305 24.8109 15.9258C26.1891 16.4508 24.7891 18.7148 23.9195 18.4797C23.4328 17.4297 22.8312 16.2758 21.7703 15.7617C22.5852 16.6641 22.9898 17.7742 23.8648 18.5891C23.925 19.7266 25.0789 18.1734 25.0078 19.0539C25.1172 20.5687 23.2961 21.4766 23.6133 22.9969C24.2914 24.3805 22.3063 24.632 22.5305 25.8734C21.732 26.7648 20.8789 27.968 19.4461 27.7766C19.4461 27.0219 19.0633 26.382 18.9758 25.6055C18.1992 24.6211 19.7961 23.5656 18.8062 22.5375C17.6633 22.2805 19.0414 20.7055 17.8656 20.8531C17.1602 20.1477 16.1266 20.8312 15.1148 20.8367C13.8461 20.957 12.5391 19.2781 13.1023 18.0914C12.6539 16.8555 14.5242 16.4945 14.5734 15.4062C15.4703 14.657 16.7445 14.75 17.9586 14.575C17.8711 15.4445 18.7898 15.45 19.4844 15.7398C19.8727 14.7992 21.0812 15.893 21.907 15.2969C22.1914 13.9078 21.1031 14.7445 20.4797 14.3016C19.725 13.1969 22.093 13.7328 21.8469 13.1531C20.9281 13.1477 21.4477 12.0211 20.7969 12.65C21.382 12.7539 20.693 13.2133 20.7094 12.6883C19.8234 12.4313 20.6766 13.6945 20.2281 13.8148C19.5445 13.5305 19.8672 14.1375 19.9383 14.2305C19.643 14.8703 19.282 13.2898 18.4453 13.3336C17.6141 12.5734 18.1172 13.6781 18.8391 13.8586C18.6859 13.9023 18.9266 14.5312 18.7352 14.2633C18.1391 13.443 17.007 12.8961 16.3344 13.9023C16.2633 14.843 14.3492 15.1109 14.6555 14.0117C14.207 12.8742 16.0445 13.9789 15.875 13.0711C14.6938 12.2891 16.1977 12.5406 16.5969 11.8078C17.5047 11.8352 16.6352 11.0641 17.0617 10.8398C17.018 11.6766 17.7563 11.518 18.3414 11.3594C18.1992 10.8781 18.6914 10.8945 18.3906 10.4953C19.7469 9.95391 17.357 10.7469 17.8383 9.56016C17.2531 9.15547 17.5922 10.4516 17.8383 10.5883C17.8547 10.9875 17.5156 11.4797 17.0508 10.643C16.3727 11.0859 16.4438 10.1945 16.4 10.2875C16.3234 9.94297 16.9141 9.92656 16.9195 9.325C16.8703 8.94219 16.8812 8.73984 17.1547 8.71797C17.1766 8.77266 18.2758 8.78906 18.6641 9.24297C17.6031 9.02969 18.5055 9.41797 18.9812 9.63672C18.4727 9.2375 19.1836 9.63672 18.768 9.18281C18.932 9.21563 18.3141 8.55938 18.9484 9.13359C18.6039 8.72344 19.6211 8.84375 19.0195 8.5375C19.9 8.78359 19.3805 8.55938 18.8609 8.33516C17.4281 7.48203 21.393 9.48906 19.7742 8.59766C20.8078 8.82188 17.5648 7.79922 19.0414 8.24766C18.4781 8.00156 19.025 8.13828 19.5336 8.29688C18.6203 8.0125 17.2531 7.48203 17.3078 7.46016C17.625 7.48203 17.9367 7.55313 18.2375 7.64062C19.1727 7.91953 17.9695 7.575 18.2266 7.58047C21.4422 8.40625 24.2586 10.5609 25.9703 13.3773C26.3695 13.7984 27.4578 16.582 26.8891 15.3461C27.1461 16.3305 27.1844 17.3914 27.3211 18.3977C27.0367 18.0805 26.7195 16.9102 26.4461 16.2594C26.3312 16.5109 26.2 15.9039 25.7789 15.7398Z" fill="#0C930A"/>
</g>
<path fill-rule="evenodd" clip-rule="evenodd" d="M63.9891 28.6979C64.4705 27.5968 64.7118 26.4192 64.7129 25.1653L64.7225 14.2046H61.1365L61.1269 25.1622C61.1263 25.9239 60.9792 26.6386 60.6856 27.3063C60.4038 27.9623 60.0107 28.5362 59.5064 29.028C59.0138 29.5197 58.4333 29.9118 57.7651 30.2042C57.0969 30.4848 56.3878 30.6248 55.6378 30.6242C54.8761 30.6235 54.1614 30.4823 53.4936 30.2004C52.8376 29.9069 52.2638 29.5138 51.772 29.0212C51.2802 28.5286 50.8882 27.954 50.5958 27.2975C50.3151 26.6293 50.1751 25.9143 50.1758 25.1526L50.1899 9.0159L46.5512 9.01272L46.5371 25.1494L46.5369 25.3955C46.5011 26.1221 46.3306 26.8075 46.0253 27.4517C45.7318 28.0843 45.3387 28.6347 44.8461 29.103C44.3653 29.5714 43.7966 29.94 43.1401 30.209C42.4953 30.4779 41.8038 30.6121 41.0655 30.6114C40.3038 30.6108 39.5891 30.4695 38.9214 30.1877C38.2654 29.8941 37.6856 29.5011 37.1822 29.0084C36.6904 28.5158 36.2983 27.9413 36.0059 27.2847C35.7253 26.6165 35.5853 25.9016 35.5859 25.1399L35.6001 9.00314L32.0141 9L32 25.1367C31.9989 26.3906 32.2323 27.5686 32.7 28.6705C33.1795 29.7725 33.8291 30.734 34.6487 31.555C35.4683 32.3761 36.4287 33.0273 37.5298 33.5087C38.6309 33.9785 39.8085 34.2139 41.0624 34.215C42.5624 34.2163 43.9396 33.8952 45.1941 33.2518C46.4486 32.5966 47.4923 31.7186 48.3253 30.6178C48.7467 31.1689 49.2209 31.6674 49.7478 32.1132C50.2865 32.559 50.8662 32.9403 51.487 33.2573C52.1079 33.5625 52.7639 33.8033 53.4552 33.9797C54.1581 34.1444 54.8846 34.227 55.6346 34.2277C56.8885 34.2288 58.0665 33.9955 59.1685 33.5277C60.2704 33.0482 61.2319 32.3986 62.053 31.579C62.874 30.7594 63.5194 29.7991 63.9891 28.6979ZM61.1383 12.2046H64.7242L64.727 9.02862L61.1411 9.02548L61.1383 12.2046Z" fill="#505650"/>
<path d="M62.957 12.1953H62.4375H61.5391H61.1367V12.0234V11.3008V10.9609V10.3984V10.2539V9.77344V9.25V9H61.5H62H63H64H64.7266V9.40234V9.80469V10.4727V11.2852V12.1953H63.5742H62.957Z" fill="#0C930A"/>
<path d="M89.3042 34.0025L68.6324 34.0319L68.6041 14.1686L89.276 14.1392L89.2811 17.7603L72.2479 17.7845L72.2659 30.388L89.299 30.3638L89.3042 34.0025ZM86.9898 25.7968L73.9644 25.8153L73.9592 22.1766L86.9846 22.1581L86.9898 25.7968Z" fill="#505650"/>
<path d="M117.102 28.0985C117.104 28.9188 116.947 29.6868 116.633 30.4024C116.33 31.118 115.91 31.746 115.372 32.2863C114.834 32.815 114.202 33.2384 113.476 33.5566C112.762 33.863 111.995 34.0172 111.175 34.0193L99.046 34.0489L99.0371 30.4102L111.166 30.3806C111.494 30.3798 111.799 30.3205 112.08 30.2026C112.361 30.0847 112.6 29.9259 112.799 29.7262C113.01 29.5148 113.173 29.2741 113.29 29.0043C113.406 28.7228 113.464 28.4238 113.463 28.1074C113.462 27.7793 113.403 27.4747 113.285 27.1938C113.167 26.9128 113.003 26.673 112.791 26.4743C112.591 26.2638 112.351 26.1003 112.069 25.9838C111.788 25.8673 111.483 25.8095 111.155 25.8103L99.0259 25.84L99.017 22.2013L108.193 22.1789C108.544 22.1663 108.872 22.101 109.177 21.9831C109.481 21.8652 109.744 21.7122 109.967 21.5241C110.2 21.3243 110.382 21.0954 110.51 20.8372C110.638 20.5674 110.702 20.2801 110.701 19.9755C110.7 19.659 110.641 19.3721 110.523 19.1146C110.405 18.8453 110.241 18.6113 110.029 18.4126C109.83 18.2139 109.589 18.0621 109.307 17.9574C109.038 17.8408 108.745 17.783 108.428 17.7837L97.3012 17.8109L97.3409 34.0531L93.6671 34.0621L93.6185 14.1988L108.419 14.1627C109.228 14.1607 109.99 14.3112 110.706 14.6141C111.433 14.917 112.061 15.3315 112.589 15.8575C113.13 16.3718 113.553 16.986 113.86 17.7001C114.178 18.4025 114.338 19.158 114.34 19.9666C114.341 20.4822 114.272 20.9687 114.132 21.426C114.005 21.8834 113.824 22.3116 113.591 22.7106C114.107 22.9437 114.576 23.2472 114.999 23.6212C115.434 23.9834 115.804 24.3985 116.11 24.8665C116.427 25.3345 116.669 25.8437 116.834 26.3941C117.011 26.9327 117.1 27.5008 117.102 28.0985Z" fill="#505650"/>
<path d="M142.303 28.1647C142.304 28.9733 142.151 29.735 141.847 30.45C141.543 31.1532 141.127 31.7686 140.6 32.2962C140.084 32.8237 139.469 33.2399 138.754 33.5449C138.051 33.8498 137.296 34.0024 136.487 34.0027L119.665 34.0089L119.663 30.4053L136.486 30.3992C136.802 30.3991 137.095 30.3463 137.365 30.2407C137.646 30.1234 137.886 29.9651 138.085 29.7658C138.296 29.5548 138.46 29.3145 138.577 29.0449C138.694 28.7754 138.753 28.4824 138.752 28.166C138.752 27.8496 138.694 27.5566 138.576 27.2871C138.459 27.0059 138.295 26.7657 138.084 26.5666C137.885 26.3557 137.644 26.1918 137.363 26.0747C137.093 25.9576 136.8 25.8991 136.484 25.8992L125.463 25.9032C124.666 25.9035 123.916 25.7514 123.212 25.447C122.509 25.1426 121.894 24.7268 121.366 24.1996C120.839 23.6608 120.422 23.034 120.118 22.3192C119.813 21.6045 119.66 20.8428 119.66 20.0342C119.659 19.2491 119.811 18.5049 120.116 17.8017C120.42 17.0867 120.836 16.4655 121.363 15.9379C121.89 15.4104 122.505 14.9941 123.208 14.6892C123.911 14.3725 124.661 14.2141 125.458 14.2138L140.98 14.2081L140.981 17.7589L125.46 17.7646C125.155 17.7647 124.862 17.8292 124.581 17.9582C124.311 18.0755 124.077 18.2397 123.878 18.4507C123.679 18.65 123.521 18.8903 123.403 19.1716C123.286 19.4411 123.228 19.7283 123.228 20.0329C123.228 20.3494 123.287 20.6482 123.404 20.9294C123.521 21.1989 123.68 21.439 123.879 21.6499C124.078 21.849 124.313 22.0072 124.582 22.1243C124.864 22.2413 125.157 22.2998 125.461 22.2997L136.483 22.2957C137.291 22.2954 138.047 22.4533 138.75 22.7695C139.465 23.0739 140.081 23.4956 140.597 24.0344C141.124 24.5616 141.54 25.1825 141.845 25.8973C142.15 26.612 142.303 27.3678 142.303 28.1647Z" fill="#505650"/>
<path d="M167.883 14.2071L157.789 34.007L153.676 34.0099L143.484 14.2239L147.58 14.2211L155.73 30.0182L163.822 14.2099L167.883 14.2071Z" fill="#505650"/>
<path d="M174.628 34.0004L171.024 34.0002L171.026 8.79317L174.629 8.79342L174.628 34.0004Z" fill="#0C930A"/>
<path d="M194.721 34.0084L191.117 34.0107L191.104 12.4071L178.359 12.4152L178.357 8.81167L207.449 8.79333L207.451 12.3968L194.707 12.4049L194.721 34.0084Z" fill="#0C930A"/>
<defs>
<filter id="filter0_di_18_476" x="0" y="6" width="30" height="32" filterUnits="userSpaceOnUse" color-interpolation-filters="sRGB">
<feFlood flood-opacity="0" result="BackgroundImageFix"/>
<feColorMatrix in="SourceAlpha" type="matrix" values="0 0 0 0 0 0 0 0 0 0 0 0 0 0 0 0 0 0 127 0" result="hardAlpha"/>
<feOffset dy="1"/>
<feGaussianBlur stdDeviation="0.5"/>
<feComposite in2="hardAlpha" operator="out"/>
<feColorMatrix type="matrix" values="0 0 0 0 0.619608 0 0 0 0 0.670588 0 0 0 0 0.619608 0 0 0 1 0"/>
<feBlend mode="normal" in2="BackgroundImageFix" result="effect1_dropShadow_18_476"/>
<feBlend mode="normal" in="SourceGraphic" in2="effect1_dropShadow_18_476" result="shape"/>
<feColorMatrix in="SourceAlpha" type="matrix" values="0 0 0 0 0 0 0 0 0 0 0 0 0 0 0 0 0 0 127 0" result="hardAlpha"/>
<feOffset dy="4"/>
<feGaussianBlur stdDeviation="10"/>
<feComposite in2="hardAlpha" operator="arithmetic" k2="-1" k3="1"/>
<feColorMatrix type="matrix" values="0 0 0 0 0.619608 0 0 0 0 0.670588 0 0 0 0 0.619608 0 0 0 0.05 0"/>
<feBlend mode="normal" in2="shape" result="effect2_innerShadow_18_476"/>
</filter>
</defs>
</svg>
